<?xml version="1.0" encoding="iso-8859-1"?>
<!-- Generator: Adobe Illustrator 19.0.0, SVG Export Plug-In . SVG Version: 6.00 Build 0)  -->
<svg version="1.1" id="Layer_1" xmlns="http://www.w3.org/2000/svg" xmlns:xlink="http://www.w3.org/1999/xlink" x="0px" y="0px"
	 viewBox="0 0 512.002 512.002" style="enable-background:new 0 0 512.002 512.002;" xml:space="preserve">
<g>
	<g>
		<path d="M458.25,244.095c2.721-15.309,1.19-30.278-4.253-45.077c-12.418-33.34-43.375-56.983-78.757-60.215
			c-25.005-2.381-49.499,4.932-68.38,19.902c-18.2-45.758-64.127-77.226-115.838-77.226c-0.34,0-0.681,0-1.021,0
			c-63.787,0.51-119.07,51.201-122.813,113.117c-0.85,14.628,0.852,28.916,5.274,42.694C30.278,247.326,0,283.728,0,327.103
			c0,50.009,32.319,103.42,122.811,103.42h293.082c57.493,0,96.107-53.411,96.108-103.249
			C512.002,291.723,490.738,259.404,458.25,244.095z M415.893,408.918H122.642c-91.512,0-101.379-57.323-101.379-81.987
			c0-36.742,28.577-67.189,66.678-70.761l14.969-1.36l-6.124-13.607c-6.465-14.459-9.356-29.597-8.335-45.417
			c3.062-50.859,48.818-92.704,101.72-93.043c0.34,0,0.51,0,0.85,0c47.968,0,90.152,32.659,100.189,77.733l4.763,20.922
			l13.778-16.33c15.309-18.2,38.953-27.556,63.277-25.344c27.385,2.552,51.201,20.752,60.726,46.437
			c4.932,13.268,5.443,27.046,1.531,40.995l-2.722,9.696l9.525,3.401c28.916,10.206,48.478,37.081,48.478,66.678
			C490.567,365.713,459.95,408.918,415.893,408.918z"/>
	</g>
</g>
<g>
</g>
<g>
</g>
<g>
</g>
<g>
</g>
<g>
</g>
<g>
</g>
<g>
</g>
<g>
</g>
<g>
</g>
<g>
</g>
<g>
</g>
<g>
</g>
<g>
</g>
<g>
</g>
<g>
</g>
</svg>
