<svg xmlns="http://www.w3.org/2000/svg" height="734pt" version="1.1" viewBox="0 -43 734.99879 734" width="734pt">
<g id="surface1">
<path d="M 505.035156 328.410156 C 512.480469 330.46875 520.25 331.089844 527.925781 330.261719 C 528.890625 330.496094 529.890625 330.613281 530.886719 330.613281 L 535.195312 330.613281 C 550.945312 348.863281 573.859375 359.363281 597.972656 359.363281 C 622.078125 359.363281 644.992188 348.863281 660.738281 330.613281 L 665.050781 330.613281 C 703.667969 330.613281 735 303.53125 735 270.25 C 735 239.546875 709.0625 214.472656 674.644531 210.449219 C 660.164062 181.21875 630.585938 162.507812 597.972656 161.953125 C 565.664062 162.734375 536.371094 181.113281 521.628906 209.863281 L 521.292969 209.863281 C 491.132812 209.894531 465.613281 232.183594 461.53125 262.074219 C 457.449219 291.957031 476.050781 320.269531 505.101562 328.398438 Z M 493.824219 247.820312 C 501.921875 238.109375 514.539062 233.371094 527.023438 235.363281 C 532.671875 236.289062 538.214844 233.25 540.480469 228.003906 C 548.804688 203.503906 571.742188 186.976562 597.621094 186.835938 C 623.492188 186.703125 646.617188 202.988281 655.195312 227.394531 C 657.128906 231.832031 661.464844 234.75 666.308594 234.867188 C 690.449219 235.386719 710.085938 251.285156 710.085938 270.257812 C 710.085938 289.816406 689.878906 305.710938 665.050781 305.710938 L 654.984375 305.710938 C 651.195312 305.710938 647.605469 307.441406 645.246094 310.402344 C 634.21875 325.503906 616.648438 334.425781 597.964844 334.425781 C 579.273438 334.425781 561.703125 325.503906 550.675781 310.402344 C 548.316406 307.4375 544.738281 305.699219 540.941406 305.695312 L 535.683594 305.695312 C 533.386719 304.734375 530.851562 304.488281 528.414062 304.972656 C 513.707031 308.023438 498.6875 301.46875 490.914062 288.621094 C 483.144531 275.785156 484.3125 259.429688 493.824219 247.820312 Z M 493.824219 247.820312 " style=" stroke:none;fill-rule:nonzero;fill:rgb(0%,0%,0%);fill-opacity:1;" />
<path d="M 213.730469 397.316406 C 199.25 368.085938 169.671875 349.375 137.058594 348.824219 C 104.75 349.601562 75.457031 367.980469 60.714844 396.734375 L 60.378906 396.734375 C 30.203125 396.734375 4.660156 419.015625 0.566406 448.914062 C -3.535156 478.804688 15.066406 507.140625 44.121094 515.265625 C 51.566406 517.320312 59.335938 517.949219 67.011719 517.121094 C 67.976562 517.355469 68.976562 517.464844 69.972656 517.464844 L 74.28125 517.464844 C 90.191406 535.515625 113.003906 545.964844 137.058594 546.222656 C 161.105469 545.957031 183.917969 535.507812 199.824219 517.464844 L 204.136719 517.464844 C 242.753906 517.464844 274.085938 490.386719 274.085938 457.105469 C 274.085938 426.40625 248.109375 401.332031 213.730469 397.316406 Z M 204.136719 492.554688 L 194.070312 492.554688 C 190.28125 492.554688 186.691406 494.285156 184.332031 497.25 C 173.074219 512.070312 155.65625 520.929688 137.058594 521.304688 C 118.425781 520.949219 100.984375 512.085938 89.714844 497.25 C 87.363281 494.300781 83.796875 492.574219 80.027344 492.554688 L 74.769531 492.554688 C 72.472656 491.59375 69.9375 491.34375 67.5 491.832031 C 53.570312 494.738281 39.25 489.027344 31.15625 477.324219 C 23.054688 465.628906 22.746094 450.210938 30.375 438.199219 C 38.003906 426.1875 52.078125 419.910156 66.109375 422.257812 C 71.757812 423.179688 77.300781 420.148438 79.566406 414.894531 C 88.65625 390.835938 111.34375 374.613281 137.058594 373.789062 C 162.53125 374.625 185.046875 390.578125 194.28125 414.339844 C 196.214844 418.777344 200.550781 421.695312 205.394531 421.8125 C 229.535156 422.335938 249.171875 438.230469 249.171875 457.199219 C 249.171875 476.660156 228.964844 492.554688 204.136719 492.554688 Z M 204.136719 492.554688 " style=" stroke:none;fill-rule:nonzero;fill:rgb(0%,0%,0%);fill-opacity:1;" />
<path d="M 335.722656 243.410156 C 390.671875 243.410156 435.375 205.230469 435.375 158.289062 C 435.375 114.074219 396.757812 78.105469 346.167969 73.679688 C 325.867188 29.863281 282.347656 1.449219 234.058594 0.5 C 185.882812 1.378906 142.417969 29.644531 122.070312 73.324219 C 120.667969 73.226562 119.253906 73.160156 117.78125 73.160156 C 75.15625 73.152344 39.089844 104.675781 33.394531 146.921875 C 27.691406 189.171875 54.117188 229.125 95.21875 240.410156 C 106.003906 243.335938 117.261719 244.140625 128.347656 242.765625 C 129.605469 243.1875 130.925781 243.40625 132.257812 243.410156 L 141.675781 243.410156 C 164.660156 270.652344 198.351562 286.566406 233.996094 287.011719 C 269.632812 286.566406 303.320312 270.652344 326.304688 243.410156 Z M 310.730469 223.195312 C 292.441406 247.203125 264.179688 261.539062 233.996094 262.097656 C 203.816406 261.539062 175.542969 247.203125 157.242188 223.195312 C 154.886719 220.230469 151.296875 218.496094 147.507812 218.496094 L 138.113281 218.496094 C 135.570312 217.140625 132.628906 216.703125 129.792969 217.25 C 114.066406 220.496094 97.6875 217.324219 84.316406 208.429688 C 70.945312 199.546875 61.679688 185.675781 58.582031 169.917969 C 55.085938 152.144531 59.808594 133.738281 71.429688 119.839844 C 84.988281 103.300781 106.4375 95.382812 127.488281 99.160156 C 133.117188 100.0625 138.648438 97.03125 140.898438 91.792969 C 155.65625 52.878906 192.398438 26.683594 233.996094 25.410156 C 275.1875 26.660156 311.660156 52.367188 326.664062 90.75 C 328.601562 95.199219 332.941406 98.109375 337.789062 98.226562 C 377.859375 99.109375 410.464844 126.074219 410.464844 158.339844 C 410.464844 191.535156 376.945312 218.546875 335.722656 218.546875 L 320.472656 218.546875 C 316.6875 218.542969 313.105469 220.25 310.730469 223.195312 Z M 310.730469 223.195312 " style=" stroke:none;fill-rule:nonzero;fill:rgb(0%,0%,0%);fill-opacity:1;" />
<path d="M 632.6875 434.941406 C 613.148438 390.527344 569.246094 361.832031 520.722656 361.753906 C 472.199219 361.675781 428.207031 390.230469 408.523438 434.578125 C 407.125 434.480469 405.710938 434.417969 404.234375 434.417969 C 361.609375 434.410156 325.539062 465.929688 319.835938 508.179688 C 314.144531 550.429688 340.570312 590.378906 381.675781 601.671875 C 392.457031 604.597656 403.710938 605.394531 414.800781 604.019531 C 416.078125 604.449219 417.425781 604.667969 418.769531 604.667969 L 428.1875 604.667969 C 450.90625 632.253906 484.765625 648.230469 520.503906 648.230469 C 556.238281 648.230469 590.097656 632.253906 612.816406 604.667969 L 622.234375 604.667969 C 677.183594 604.667969 721.890625 566.488281 721.890625 519.550781 C 721.890625 475.328125 683.285156 439.363281 632.6875 434.941406 Z M 622.234375 579.753906 L 606.984375 579.753906 C 603.195312 579.753906 599.609375 581.488281 597.25 584.449219 C 579.320312 608.90625 550.820312 623.355469 520.503906 623.355469 C 490.1875 623.355469 461.683594 608.90625 443.761719 584.449219 C 441.398438 581.488281 437.808594 579.753906 434.019531 579.753906 L 424.628906 579.753906 C 422.082031 578.394531 419.140625 577.957031 416.308594 578.507812 C 400.578125 581.757812 384.207031 578.582031 370.828125 569.6875 C 357.460938 560.800781 348.199219 546.933594 345.101562 531.171875 C 341.605469 513.398438 346.320312 494.992188 357.945312 481.09375 C 371.496094 464.542969 392.945312 456.628906 414.003906 460.414062 C 419.628906 461.320312 425.160156 458.292969 427.417969 453.054688 C 442.171875 414.140625 478.910156 387.9375 520.507812 386.667969 C 561.699219 387.914062 598.171875 413.628906 613.175781 452.003906 C 615.117188 456.453125 619.453125 459.363281 624.300781 459.480469 C 664.371094 460.363281 696.976562 487.335938 696.976562 519.597656 C 696.976562 552.746094 663.457031 579.753906 622.234375 579.753906 Z M 622.234375 579.753906 " style=" stroke:none;fill-rule:nonzero;fill:rgb(0%,0%,0%);fill-opacity:1;" />
</g>
</svg>