<svg id="Clouds" enable-background="new 0 0 300 300" height="512" viewBox="0 0 300 300" width="512" xmlns="http://www.w3.org/2000/svg"><g><path d="m172.061 163.684c-.092 0-.18 0-.272 0-7.809-21.661-28.4-36.371-51.791-36.371-30.396 0-55.124 24.701-55.124 55.06 0 .928.027 1.868.079 2.826-9.008 4.651-14.953 14.111-14.953 24.548 0 15.302 12.421 27.753 27.689 27.753h94.373c20.367 0 36.938-16.571 36.938-36.938 0-20.337-16.571-36.878-36.939-36.878zm0 61.316h-94.372c-8.374 0-15.189-6.842-15.189-15.253 0-6.702 4.462-12.665 10.849-14.496 2.994-.854 4.898-3.79 4.465-6.873-.29-2.087-.439-4.108-.439-6.006 0-23.468 19.122-42.56 42.624-42.56 19.479 0 36.447 13.202 41.257 32.104.824 3.235 4.037 5.219 7.33 4.578.986-.208 2.155-.311 3.476-.311 13.477 0 24.438 10.938 24.438 24.377 0 13.478-10.962 24.44-24.439 24.44z"/><path d="m135.227 157.167c-10.903-3.118-22.659-2.789-33.38.92-3.552 1.229-5.184 5.34-3.502 8.701l.001.003c1.394 2.785 4.632 4.134 7.574 3.111 8.306-2.887 17.433-3.143 25.888-.717 2.992.858 6.15-.666 7.389-3.521 1.496-3.448-.357-7.464-3.97-8.497z"/><path d="m224.448 86.835c-5.793-14.557-19.928-24.335-36.011-24.335-21.436 0-38.873 17.438-38.873 38.873 0 21.472 17.438 38.94 38.873 38.94 6.802 0 13.342-1.74 19.177-5.078 4.483 3.271 9.958 5.078 15.634 5.078 14.752 0 26.752-12 26.752-26.752 0-14.348-11.356-26.092-25.552-26.726zm-1.2 40.979c-3.995 0-7.785-1.678-10.4-4.602-1.23-1.379-2.939-2.087-4.663-2.087-1.324 0-2.655.421-3.784 1.276-4.648 3.54-10.168 5.414-15.964 5.414-14.542 0-26.373-11.859-26.373-26.44 0-14.545 11.832-26.373 26.373-26.373 12.112 0 22.598 8.173 25.494 19.879.824 3.32 4.166 5.328 7.495 4.584.449-.104 1.01-.153 1.822-.153 7.858 0 14.252 6.39 14.252 14.252s-6.393 14.25-14.252 14.25z"/></g></svg>