<svg height="512pt" viewBox="0 -10 512 512" width="512pt" xmlns="http://www.w3.org/2000/svg"><path d="m512 259.726562c0-31.34375-22.882812-57.132812-53.210938-61.386718-3.882812-32.472656-21.875-60.46875-47.515624-77.917969-1.617188-33.191406-27.859376-60.320313-60.792969-63.230469-4.675781-10.742187-11.25-20.441406-19.585938-28.882812-2.910156-2.945313-7.660156-2.976563-10.605469-.0625-2.949218 2.910156-2.976562 7.65625-.066406 10.605468 8.023438 8.121094 14.105469 17.617188 18.078125 28.21875 1.085938 2.894532 3.839844 4.828126 6.933594 4.867188 23.882813.285156 43.988281 16.996094 49.570313 39.238281-13.878907-6.300781-29.265626-9.8125-45.410157-9.8125-40.78125 0-77.523437 22.128907-96.699219 57.304688-19.292968-27.375-51.15625-45.167969-86.882812-45.167969-7.394531 0-14.683594.769531-21.789062 2.25 6.691406-10.839844 18.460937-17.960938 31.859374-18.421875 3.867188-.132813 6.996094-3.183594 7.230469-7.042969 2.554688-42.214844 37.71875-75.285156 80.058594-75.285156 11.101563 0 21.871094 2.238281 32 6.652344 3.800781 1.65625 8.21875-.082032 9.875-3.878906 1.652344-3.796876-.082031-8.214844-3.878906-9.871094-12.035157-5.242188-24.820313-7.902344-37.996094-7.902344-48.089844 0-88.382813 35.953125-94.425781 82.964844-20.769532 3.253906-37.75 18.210937-43.503906 38.566406-7.203126 2.984375-14.109376 6.765625-20.589844 11.339844-16.183594 11.421875-28.710938 26.882812-36.453125 44.929687-17.707031 1.40625-34.15625 9.03125-46.769531 21.78125-13.820313 13.972657-21.429688 32.492188-21.429688 52.144531 0 11.96875 2.933594 23.878907 8.484375 34.449219 1.34375 2.554688 3.949219 4.011719 6.648437 4.011719 1.175782 0 2.367188-.277344 3.480469-.863281 3.667969-1.925781 5.078125-6.460938 3.152344-10.125-4.488281-8.546875-6.765625-17.789063-6.765625-27.472657 0-32.230468 26.222656-58.769531 58.449219-59.15625 3.097656-.039062 5.847656-1.972656 6.933593-4.867187 13.273438-35.410156 47.601563-59.203125 85.425782-59.203125 48.136718 0 88.121094 37.601562 91.027344 85.601562.230468 3.828126 3.308593 6.855469 7.125 7.035157-2.238282 1.347656-4.433594 2.773437-6.585938 4.289062-16.183594 11.421875-28.707031 26.878907-36.449219 44.929688-8.628906.679687-16.945312 2.855469-24.8125 6.453125-12.949219-9.1875-28.660156-14.476563-45.148437-14.476563-32.46875 0-60.585938 19.996094-72.273438 48.574219h-4.511718c-11.851563 0-23.285157-3.488281-33.0625-10.085938-3.433594-2.320312-8.097657-1.414062-10.414063 2.019532s-1.410156 8.09375 2.019531 10.410156c12.269532 8.28125 26.601563 12.660156 41.457032 12.660156h.070312c-.207031 1.113282-.398438 2.234375-.558594 3.367188-21.101562 3.8125-36.8125 22.113281-36.8125 44.222656 0 24.789062 20.171875 44.960938 44.964844 44.960938h237.828125c4.140625 0 7.5-3.355469 7.5-7.5 0-4.140626-3.359375-7.5-7.5-7.5h-65.441406c10.707031-10.070313 17.410156-24.347657 17.410156-40.167969 0-28.347657-21.753906-51.972657-49.445313-54.863281-3.410156-7.585938-7.992187-14.460938-13.460937-20.457032 5.597656-1.804687 11.433594-2.773437 17.441406-2.847656 3.09375-.039062 5.847657-1.96875 6.933594-4.867188 13.273437-35.410156 47.601563-59.203124 85.425781-59.203124 48.136719 0 88.121094 37.601562 91.027344 85.605468.234375 3.859375 3.363281 6.910156 7.226562 7.039063 8.007813.277343 15.4375 2.613281 21.808594 6.476562.390625.300781.808594.5625 1.253906.785157 12.257813 8 20.269532 21.824218 20.269532 37.597656 0 24.761718-20.144532 44.902344-44.902344 44.902344h-62.882812c-4.144532 0-7.5 3.359374-7.5 7.5 0 4.144531 3.355468 7.5 7.5 7.5h62.882812c33.03125 0 59.902344-26.871094 59.902344-59.902344 0-14.417969-5.023438-27.613282-13.441406-37.933594 28.621093-5.488281 50.320312-30.699219 50.320312-60.898438zm-295.03125 63.40625c21.875.265626 39.671875 18.277344 39.671875 40.15625 0 22.152344-18.019531 40.171876-40.167969 40.171876h-134.628906c-16.519531 0-29.960938-13.441407-29.960938-29.964844 0-16.226563 12.699219-29.375 28.910157-29.933594 3.863281-.132812 6.996093-3.183594 7.230469-7.042969 2.007812-33.1875 29.65625-59.1875 62.941406-59.1875 26.152344 0 49.890625 16.449219 59.070312 40.9375 1.085938 2.894531 3.839844 4.828125 6.933594 4.863281zm233.011719-16.386718h-4.585938c-6.460937-3.746094-13.695312-6.332032-21.449219-7.449219-6.421874-52.785156-51.53125-93.242187-105.410156-93.242187-11.078125 0-21.925781 1.691406-32.257812 4.980468-4.828125-2.09375-9.867188-3.53125-15.058594-4.285156-1.398438-11.515625-4.640625-22.441406-9.410156-32.492188 14.996094-35.210937 49.214844-57.894531 87.585937-57.894531 50.242188 0 91.972657 39.246094 95.003907 89.347657.234374 3.859374 3.363281 6.910156 7.230468 7.039062 25.441406.875 45.371094 21.507812 45.371094 46.976562 0 25.925782-21.09375 47.019532-47.019531 47.019532zm0 0"/><path d="m379.632812 300.539062c.828126 3.4375 3.898438 5.75 7.285157 5.75.582031 0 1.171875-.070312 1.761719-.210937 4.027343-.964844 6.507812-5.015625 5.539062-9.042969-1.089844-4.527344-2.578125-8.992187-4.429688-13.273437-1.644531-3.800781-6.058593-5.550781-9.859374-3.902344-3.800782 1.644531-5.550782 6.058594-3.90625 9.859375 1.507812 3.488281 2.722656 7.128906 3.609374 10.820312zm0 0"/><path d="m314.535156 234.300781c-4.140625 0-7.5 3.359375-7.5 7.5s3.359375 7.5 7.5 7.5c18.386719 0 35.550782 7.332031 48.328125 20.644531 1.472657 1.535157 3.441407 2.304688 5.410157 2.304688 1.871093 0 3.742187-.695312 5.191406-2.089844 2.988281-2.867187 3.089844-7.613281.21875-10.601562-15.632813-16.289063-36.636719-25.257813-59.148438-25.257813zm0 0"/><path d="m449.492188 429.480469h-307.15625c-4.144532 0-7.5 3.355469-7.5 7.5 0 4.140625 3.355468 7.5 7.5 7.5h307.15625c4.144531 0 7.5-3.359375 7.5-7.5 0-4.144531-3.355469-7.5-7.5-7.5zm0 0"/><path d="m62.511719 444.480469h52.488281c4.144531 0 7.5-3.359375 7.5-7.5 0-4.144531-3.355469-7.5-7.5-7.5h-52.488281c-4.144531 0-7.5 3.355469-7.5 7.5 0 4.140625 3.355469 7.5 7.5 7.5zm0 0"/><path d="m449.492188 453.28125h-46.488282c-4.144531 0-7.5 3.355469-7.5 7.5 0 4.140625 3.355469 7.5 7.5 7.5h46.488282c4.144531 0 7.5-3.359375 7.5-7.5 0-4.144531-3.355469-7.5-7.5-7.5zm0 0"/><path d="m62.511719 468.28125h314.683593c4.140626 0 7.5-3.359375 7.5-7.5 0-4.144531-3.359374-7.5-7.5-7.5h-314.683593c-4.144531 0-7.5 3.355469-7.5 7.5 0 4.140625 3.355469 7.5 7.5 7.5zm0 0"/><path d="m449.492188 477.082031h-298.976563c-4.144531 0-7.5 3.355469-7.5 7.5 0 4.140625 3.355469 7.5 7.5 7.5h298.976563c4.144531 0 7.5-3.359375 7.5-7.5 0-4.144531-3.355469-7.5-7.5-7.5zm0 0"/><path d="m129.667969 477.082031h-10.664063c-4.144531 0-7.5 3.355469-7.5 7.5 0 4.140625 3.355469 7.5 7.5 7.5h10.664063c4.144531 0 7.5-3.359375 7.5-7.5 0-4.144531-3.355469-7.5-7.5-7.5zm0 0"/><path d="m96.273438 477.082031h-33.761719c-4.144531 0-7.5 3.355469-7.5 7.5 0 4.140625 3.355469 7.5 7.5 7.5h33.761719c4.144531 0 7.5-3.359375 7.5-7.5 0-4.144531-3.355469-7.5-7.5-7.5zm0 0"/></svg>